  0
SECTION
  2
HEADER
  9
$ACADVER
 1
AC1009
  9
$INSBASE
 10
0
 20
0
 30
0
  9
$LIMMIN
 10
0
 20
0
  9
$LIMMAX
 10
9.7
 20
7.2
  0
ENDSEC
  0
SECTION
  2
TABLES
  0
TABLE
  2
LTYPE
 70
 25
  0
LTYPE
  2
SOLIDLINE
 70
64
  3
Solid line
 72
65
 73
 0
 40
0.0
  0
LTYPE
  2
DASHEDLINE
 70
64
  3
Dashed line
 72
65
 73
2
 40
0.05
 49
0.035
 49
5g
  0
LTYPE
  2
DOTTEDLINE
 70
64
  3
Dotted line
 72
65
 73
2
 40
-0.015
 49
0.02
 49
0.01
  0
ENDTAB
  0
TABLE
  2
LAYER
 70
1
  0
LAYER
  2
0
  6
SOLIDLINE
 62
7
 70
0
  0
ENDTAB
  0
TABLE
  2
STYLE
 70
1
  0
STYLE
  2
STANDARD
 70
0
 40
0.0
 41
1.0
 50
0.0
 71
0
 42
0.2
  3
TXT
  0
ENDTAB
  0
ENDSEC
  0
SECTION
  2
BLOCKS
  0
ENDSEC
  0
SECTION
  2
ENTITIES
  0
LINE
  8
0
  6
SOLIDLINE
 62
94
 10
6.1
 20
4.4
 11
6.1
 21
3.8
  0
LINE
  8
0
  6
SOLIDLINE
 62
94
 10
6.1
 20
3.8
 11
6.6
 21
4.1
  0
LINE
  8
0
  6
SOLIDLINE
 62
94
 10
6.6
 20
4.1
 11
6.1
 21
4.4
  0
LINE
  8
0
  6
SOLIDLINE
 62
94
 10
6.13
 20
3.9
 11
6.19
 21
3.9
  0
LINE
  8
0
  6
SOLIDLINE
 62
94
 10
6.13
 20
4.3
 11
6.19
 21
4.3
  0
LINE
  8
0
  6
SOLIDLINE
 62
94
 10
6.16
 20
4.33
 11
6.16
 21
4.27
  0
LINE
  8
0
  6
SOLIDLINE
 62
5
 10
6
 20
4.3
 11
6.1
 21
4.3
  0
LINE
  8
0
  6
SOLIDLINE
 62
5
 10
6
 20
3.9
 11
6.1
 21
3.9
  0
LINE
  8
0
  6
SOLIDLINE
 62
5
 10
6.7
 20
4.1
 11
6.6
 21
4.1
  0
TEXT
  8
0
 62
5
 10
6.3
 20
3.80824
 30
0.0
 40
0.0588
  1
AD=1e5
 50
0
 41
1.098
 72
0
 11
6.3
 21
3.80824
 31
0
 73
0
  0
TEXT
  8
0
 62
5
 10
6.14
 20
4.04824
 30
0.0
 40
0.0588
  1
VVideal
 50
0
 41
1.098
 72
0
 11
6.14
 21
4.04824
 31
0
 73
0
  0
TEXT
  8
0
 62
5
 10
6.3
 20
4.28764
 30
0.0
 40
0.0588
  1
OP3
 50
0
 41
1.098
 72
0
 11
6.3
 21
4.26824
 31
0
 73
1
  0
LINE
  8
0
  6
SOLIDLINE
 62
94
 10
3.7
 20
4.3
 11
3.7
 21
4.9
  0
LINE
  8
0
  6
SOLIDLINE
 62
94
 10
3.7
 20
4.9
 11
4.2
 21
4.6
  0
LINE
  8
0
  6
SOLIDLINE
 62
94
 10
4.2
 20
4.6
 11
3.7
 21
4.3
  0
LINE
  8
0
  6
SOLIDLINE
 62
94
 10
3.73
 20
4.8
 11
3.79
 21
4.8
  0
LINE
  8
0
  6
SOLIDLINE
 62
94
 10
3.73
 20
4.4
 11
3.79
 21
4.4
  0
LINE
  8
0
  6
SOLIDLINE
 62
94
 10
3.76
 20
4.37
 11
3.76
 21
4.43
  0
LINE
  8
0
  6
SOLIDLINE
 62
5
 10
3.6
 20
4.4
 11
3.7
 21
4.4
  0
LINE
  8
0
  6
SOLIDLINE
 62
5
 10
3.6
 20
4.8
 11
3.7
 21
4.8
  0
LINE
  8
0
  6
SOLIDLINE
 62
5
 10
4.3
 20
4.6
 11
4.2
 21
4.6
  0
TEXT
  8
0
 62
5
 10
4.09416
 20
4.77764
 30
0.0
 40
0.0588
  1
OP1
 50
0
 41
1.098
 72
2
 11
4.2
 21
4.75824
 31
0
 73
1
  0
TEXT
  8
0
 62
5
 10
3.84304
 20
4.52824
 30
0.0
 40
0.0588
  1
VVideal
 50
0
 41
1.098
 72
2
 11
4.09
 21
4.52824
 31
0
 73
0
  0
TEXT
  8
0
 62
5
 10
4.18832
 20
4.31824
 30
0.0
 40
0.0588
  1
AD=1e5
 50
0
 41
1.098
 72
2
 11
4.4
 21
4.31824
 31
0
 73
0
  0
LINE
  8
0
  6
SOLIDLINE
 62
94
 10
3.7
 20
3.9
 11
3.7
 21
3.3
  0
LINE
  8
0
  6
SOLIDLINE
 62
94
 10
3.7
 20
3.3
 11
4.2
 21
3.6
  0
LINE
  8
0
  6
SOLIDLINE
 62
94
 10
4.2
 20
3.6
 11
3.7
 21
3.9
  0
LINE
  8
0
  6
SOLIDLINE
 62
94
 10
3.73
 20
3.4
 11
3.79
 21
3.4
  0
LINE
  8
0
  6
SOLIDLINE
 62
94
 10
3.73
 20
3.8
 11
3.79
 21
3.8
  0
LINE
  8
0
  6
SOLIDLINE
 62
94
 10
3.76
 20
3.83
 11
3.76
 21
3.77
  0
LINE
  8
0
  6
SOLIDLINE
 62
5
 10
3.6
 20
3.8
 11
3.7
 21
3.8
  0
LINE
  8
0
  6
SOLIDLINE
 62
5
 10
3.6
 20
3.4
 11
3.7
 21
3.4
  0
LINE
  8
0
  6
SOLIDLINE
 62
5
 10
4.3
 20
3.6
 11
4.2
 21
3.6
  0
TEXT
  8
0
 62
5
 10
3.9
 20
3.30824
 30
0.0
 40
0.0588
  1
AD=1e5
 50
0
 41
1.098
 72
0
 11
3.9
 21
3.30824
 31
0
 73
0
  0
TEXT
  8
0
 62
5
 10
3.74
 20
3.54824
 30
0.0
 40
0.0588
  1
VVideal
 50
0
 41
1.098
 72
0
 11
3.74
 21
3.54824
 31
0
 73
0
  0
TEXT
  8
0
 62
5
 10
3.9
 20
3.78764
 30
0.0
 40
0.0588
  1
OP2
 50
0
 41
1.098
 72
0
 11
3.9
 21
3.76824
 31
0
 73
1
  0
LINE
  8
0
  6
SOLIDLINE
 62
5
 10
3.98
 20
5.06
 11
3.98
 21
5.14
  0
LINE
  8
0
  6
SOLIDLINE
 62
5
 10
4.02
 20
5.06
 11
4.02
 21
5.14
  0
LINE
  8
0
  6
SOLIDLINE
 62
5
 10
4.02
 20
5.1
 11
4.1
 21
5.1
  0
LINE
  8
0
  6
SOLIDLINE
 62
5
 10
3.98
 20
5.1
 11
3.9
 21
5.1
  0
LINE
  8
0
  6
SOLIDLINE
 62
5
 10
4.2
 20
5.1
 11
4.1
 21
5.1
  0
LINE
  8
0
  6
SOLIDLINE
 62
5
 10
3.8
 20
5.1
 11
3.9
 21
5.1
  0
TEXT
  8
0
 62
5
 10
3.79
 20
5.15824
 30
0.0
 40
0.0588
  1
C2
 50
0
 41
1.098
 72
0
 11
3.79
 21
5.15824
 31
0
 73
0
  0
TEXT
  8
0
 62
5
 10
3.93
 20
5.15824
 30
0.0
 40
0.0588
  1
5.6n
 50
0
 41
1.098
 72
0
 11
3.93
 21
5.15824
 31
0
 73
0
  0
LINE
  8
0
  6
SOLIDLINE
 62
5
 10
3.98
 20
2.96
 11
3.98
 21
3.04
  0
LINE
  8
0
  6
SOLIDLINE
 62
5
 10
4.02
 20
2.96
 11
4.02
 21
3.04
  0
LINE
  8
0
  6
SOLIDLINE
 62
5
 10
4.02
 20
3
 11
4.1
 21
3
  0
LINE
  8
0
  6
SOLIDLINE
 62
5
 10
3.98
 20
3
 11
3.9
 21
3
  0
LINE
  8
0
  6
SOLIDLINE
 62
5
 10
4.2
 20
3
 11
4.1
 21
3
  0
LINE
  8
0
  6
SOLIDLINE
 62
5
 10
3.8
 20
3
 11
3.9
 21
3
  0
TEXT
  8
0
 62
5
 10
3.93
 20
3.05824
 30
0.0
 40
0.0588
  1
5.6n
 50
0
 41
1.098
 72
0
 11
3.93
 21
3.05824
 31
0
 73
0
  0
TEXT
  8
0
 62
5
 10
3.79
 20
3.05824
 30
0.0
 40
0.0588
  1
C4
 50
0
 41
1.098
 72
0
 11
3.79
 21
3.05824
 31
0
 73
0
  0
LINE
  8
0
  6
SOLIDLINE
 62
5
 10
4.1
 20
5.36
 11
3.9
 21
5.36
  0
LINE
  8
0
  6
SOLIDLINE
 62
5
 10
3.9
 20
5.36
 11
3.9
 21
5.44
  0
LINE
  8
0
  6
SOLIDLINE
 62
5
 10
3.9
 20
5.44
 11
4.1
 21
5.44
  0
LINE
  8
0
  6
SOLIDLINE
 62
5
 10
4.1
 20
5.44
 11
4.1
 21
5.36
  0
LINE
  8
0
  6
SOLIDLINE
 62
5
 10
4.2
 20
5.4
 11
4.1
 21
5.4
  0
LINE
  8
0
  6
SOLIDLINE
 62
5
 10
3.8
 20
5.4
 11
3.9
 21
5.4
  0
TEXT
  8
0
 62
5
 10
3.99
 20
5.45824
 30
0.0
 40
0.0588
  1
620
 50
0
 41
1.098
 72
0
 11
3.99
 21
5.45824
 31
0
 73
0
  0
TEXT
  8
0
 62
5
 10
3.79
 20
5.45824
 30
0.0
 40
0.0588
  1
R1
 50
0
 41
1.098
 72
0
 11
3.79
 21
5.45824
 31
0
 73
0
  0
LINE
  8
0
  6
SOLIDLINE
 62
5
 10
4.1
 20
2.66
 11
3.9
 21
2.66
  0
LINE
  8
0
  6
SOLIDLINE
 62
5
 10
3.9
 20
2.66
 11
3.9
 21
2.74
  0
LINE
  8
0
  6
SOLIDLINE
 62
5
 10
3.9
 20
2.74
 11
4.1
 21
2.74
  0
LINE
  8
0
  6
SOLIDLINE
 62
5
 10
4.1
 20
2.74
 11
4.1
 21
2.66
  0
LINE
  8
0
  6
SOLIDLINE
 62
5
 10
4.2
 20
2.7
 11
4.1
 21
2.7
  0
LINE
  8
0
  6
SOLIDLINE
 62
5
 10
3.8
 20
2.7
 11
3.9
 21
2.7
  0
TEXT
  8
0
 62
5
 10
3.84
 20
2.75824
 30
0.0
 40
0.0588
  1
R2
 50
0
 41
1.098
 72
0
 11
3.84
 21
2.75824
 31
0
 73
0
  0
TEXT
  8
0
 62
5
 10
3.99
 20
2.75824
 30
0.0
 40
0.0588
  1
620
 50
0
 41
1.098
 72
0
 11
3.99
 21
2.75824
 31
0
 73
0
  0
LINE
  8
0
  6
SOLIDLINE
 62
5
 10
5.16
 20
3.4
 11
5.24
 21
3.4
  0
LINE
  8
0
  6
SOLIDLINE
 62
5
 10
5.24
 20
3.4
 11
5.24
 21
3.6
  0
LINE
  8
0
  6
SOLIDLINE
 62
5
 10
5.24
 20
3.6
 11
5.16
 21
3.6
  0
LINE
  8
0
  6
SOLIDLINE
 62
5
 10
5.16
 20
3.6
 11
5.16
 21
3.4
  0
LINE
  8
0
  6
SOLIDLINE
 62
5
 10
5.2
 20
3.7
 11
5.2
 21
3.6
  0
LINE
  8
0
  6
SOLIDLINE
 62
5
 10
5.2
 20
3.3
 11
5.2
 21
3.4
  0
TEXT
  8
0
 62
5
 10
5.28
 20
3.36824
 30
0.0
 40
0.0588
  1
R8
 50
0
 41
1.098
 72
0
 11
5.28
 21
3.36824
 31
0
 73
0
  0
TEXT
  8
0
 62
5
 10
5.28
 20
3.47824
 30
0.0
 40
0.0588
  1
620
 50
0
 41
1.098
 72
0
 11
5.28
 21
3.47824
 31
0
 73
0
  0
LINE
  8
0
  6
SOLIDLINE
 62
5
 10
5.16
 20
4.12
 11
5.24
 21
4.12
  0
LINE
  8
0
  6
SOLIDLINE
 62
5
 10
5.16
 20
4.08
 11
5.24
 21
4.08
  0
LINE
  8
0
  6
SOLIDLINE
 62
5
 10
5.2
 20
4.08
 11
5.2
 21
4
  0
LINE
  8
0
  6
SOLIDLINE
 62
5
 10
5.2
 20
4.12
 11
5.2
 21
4.2
  0
LINE
  8
0
  6
SOLIDLINE
 62
5
 10
5.2
 20
3.9
 11
5.2
 21
4
  0
LINE
  8
0
  6
SOLIDLINE
 62
5
 10
5.2
 20
4.3
 11
5.2
 21
4.2
  0
TEXT
  8
0
 62
5
 10
5.27
 20
4.10824
 30
0.0
 40
0.0588
  1
C1
 50
0
 41
1.098
 72
0
 11
5.27
 21
4.10824
 31
0
 73
0
  0
TEXT
  8
0
 62
5
 10
5.27
 20
3.99824
 30
0.0
 40
0.0588
  1
8.2n
 50
0
 41
1.098
 72
0
 11
5.27
 21
3.99824
 31
0
 73
0
  0
LINE
  8
0
  6
SOLIDLINE
 62
5
 10
5.7
 20
3.86
 11
5.5
 21
3.86
  0
LINE
  8
0
  6
SOLIDLINE
 62
5
 10
5.5
 20
3.86
 11
5.5
 21
3.94
  0
LINE
  8
0
  6
SOLIDLINE
 62
5
 10
5.5
 20
3.94
 11
5.7
 21
3.94
  0
LINE
  8
0
  6
SOLIDLINE
 62
5
 10
5.7
 20
3.94
 11
5.7
 21
3.86
  0
LINE
  8
0
  6
SOLIDLINE
 62
5
 10
5.8
 20
3.9
 11
5.7
 21
3.9
  0
LINE
  8
0
  6
SOLIDLINE
 62
5
 10
5.4
 20
3.9
 11
5.5
 21
3.9
  0
TEXT
  8
0
 62
5
 10
5.59
 20
3.70824
 30
0.0
 40
0.0588
  1
620
 50
0
 41
1.098
 72
0
 11
5.59
 21
3.70824
 31
0
 73
0
  0
TEXT
  8
0
 62
5
 10
5.44
 20
3.70824
 30
0.0
 40
0.0588
  1
R7
 50
0
 41
1.098
 72
0
 11
5.44
 21
3.70824
 31
0
 73
0
  0
LINE
  8
0
  6
SOLIDLINE
 62
5
 10
5.7
 20
4.26
 11
5.5
 21
4.26
  0
LINE
  8
0
  6
SOLIDLINE
 62
5
 10
5.5
 20
4.26
 11
5.5
 21
4.34
  0
LINE
  8
0
  6
SOLIDLINE
 62
5
 10
5.5
 20
4.34
 11
5.7
 21
4.34
  0
LINE
  8
0
  6
SOLIDLINE
 62
5
 10
5.7
 20
4.34
 11
5.7
 21
4.26
  0
LINE
  8
0
  6
SOLIDLINE
 62
5
 10
5.8
 20
4.3
 11
5.7
 21
4.3
  0
LINE
  8
0
  6
SOLIDLINE
 62
5
 10
5.4
 20
4.3
 11
5.5
 21
4.3
  0
TEXT
  8
0
 62
5
 10
5.44
 20
4.35824
 30
0.0
 40
0.0588
  1
R6
 50
0
 41
1.098
 72
0
 11
5.44
 21
4.35824
 31
0
 73
0
  0
TEXT
  8
0
 62
5
 10
5.59
 20
4.35824
 30
0.0
 40
0.0588
  1
620
 50
0
 41
1.098
 72
0
 11
5.59
 21
4.35824
 31
0
 73
0
  0
LINE
  8
0
  6
SOLIDLINE
 62
5
 10
4.9
 20
4.26
 11
4.7
 21
4.26
  0
LINE
  8
0
  6
SOLIDLINE
 62
5
 10
4.7
 20
4.26
 11
4.7
 21
4.34
  0
LINE
  8
0
  6
SOLIDLINE
 62
5
 10
4.7
 20
4.34
 11
4.9
 21
4.34
  0
LINE
  8
0
  6
SOLIDLINE
 62
5
 10
4.9
 20
4.34
 11
4.9
 21
4.26
  0
LINE
  8
0
  6
SOLIDLINE
 62
5
 10
5
 20
4.3
 11
4.9
 21
4.3
  0
LINE
  8
0
  6
SOLIDLINE
 62
5
 10
4.6
 20
4.3
 11
4.7
 21
4.3
  0
TEXT
  8
0
 62
5
 10
4.64
 20
4.35824
 30
0.0
 40
0.0588
  1
R4
 50
0
 41
1.098
 72
0
 11
4.64
 21
4.35824
 31
0
 73
0
  0
TEXT
  8
0
 62
5
 10
4.79
 20
4.35824
 30
0.0
 40
0.0588
  1
620
 50
0
 41
1.098
 72
0
 11
4.79
 21
4.35824
 31
0
 73
0
  0
LINE
  8
0
  6
SOLIDLINE
 62
5
 10
4.9
 20
3.86
 11
4.7
 21
3.86
  0
LINE
  8
0
  6
SOLIDLINE
 62
5
 10
4.7
 20
3.86
 11
4.7
 21
3.94
  0
LINE
  8
0
  6
SOLIDLINE
 62
5
 10
4.7
 20
3.94
 11
4.9
 21
3.94
  0
LINE
  8
0
  6
SOLIDLINE
 62
5
 10
4.9
 20
3.94
 11
4.9
 21
3.86
  0
LINE
  8
0
  6
SOLIDLINE
 62
5
 10
5
 20
3.9
 11
4.9
 21
3.9
  0
LINE
  8
0
  6
SOLIDLINE
 62
5
 10
4.6
 20
3.9
 11
4.7
 21
3.9
  0
TEXT
  8
0
 62
5
 10
4.64
 20
3.95824
 30
0.0
 40
0.0588
  1
R5
 50
0
 41
1.098
 72
0
 11
4.64
 21
3.95824
 31
0
 73
0
  0
TEXT
  8
0
 62
5
 10
4.79
 20
3.95824
 30
0.0
 40
0.0588
  1
620
 50
0
 41
1.098
 72
0
 11
4.79
 21
3.95824
 31
0
 73
0
  0
LINE
  8
0
  6
SOLIDLINE
 62
5
 10
5.86
 20
3.52
 11
5.94
 21
3.52
  0
LINE
  8
0
  6
SOLIDLINE
 62
5
 10
5.86
 20
3.48
 11
5.94
 21
3.48
  0
LINE
  8
0
  6
SOLIDLINE
 62
5
 10
5.9
 20
3.48
 11
5.9
 21
3.4
  0
LINE
  8
0
  6
SOLIDLINE
 62
5
 10
5.9
 20
3.52
 11
5.9
 21
3.6
  0
LINE
  8
0
  6
SOLIDLINE
 62
5
 10
5.9
 20
3.3
 11
5.9
 21
3.4
  0
LINE
  8
0
  6
SOLIDLINE
 62
5
 10
5.9
 20
3.7
 11
5.9
 21
3.6
  0
TEXT
  8
0
 62
5
 10
5.97
 20
3.50824
 30
0.0
 40
0.0588
  1
C5
 50
0
 41
1.098
 72
0
 11
5.97
 21
3.50824
 31
0
 73
0
  0
TEXT
  8
0
 62
5
 10
5.97
 20
3.39824
 30
0.0
 40
0.0588
  1
1.8n
 50
0
 41
1.098
 72
0
 11
5.97
 21
3.39824
 31
0
 73
0
  0
LINE
  8
0
  6
SOLIDLINE
 62
5
 10
6.28
 20
4.66
 11
6.28
 21
4.74
  0
LINE
  8
0
  6
SOLIDLINE
 62
5
 10
6.32
 20
4.66
 11
6.32
 21
4.74
  0
LINE
  8
0
  6
SOLIDLINE
 62
5
 10
6.32
 20
4.7
 11
6.4
 21
4.7
  0
LINE
  8
0
  6
SOLIDLINE
 62
5
 10
6.28
 20
4.7
 11
6.2
 21
4.7
  0
LINE
  8
0
  6
SOLIDLINE
 62
5
 10
6.5
 20
4.7
 11
6.4
 21
4.7
  0
LINE
  8
0
  6
SOLIDLINE
 62
5
 10
6.1
 20
4.7
 11
6.2
 21
4.7
  0
TEXT
  8
0
 62
5
 10
6.14
 20
4.75824
 30
0.0
 40
0.0588
  1
C3
 50
0
 41
1.098
 72
0
 11
6.14
 21
4.75824
 31
0
 73
0
  0
TEXT
  8
0
 62
5
 10
6.28
 20
4.75824
 30
0.0
 40
0.0588
  1
1.8n
 50
0
 41
1.098
 72
0
 11
6.28
 21
4.75824
 31
0
 73
0
  0
LINE
  8
0
  6
SOLIDLINE
 62
5
 10
6.4
 20
4.96
 11
6.2
 21
4.96
  0
LINE
  8
0
  6
SOLIDLINE
 62
5
 10
6.2
 20
4.96
 11
6.2
 21
5.04
  0
LINE
  8
0
  6
SOLIDLINE
 62
5
 10
6.2
 20
5.04
 11
6.4
 21
5.04
  0
LINE
  8
0
  6
SOLIDLINE
 62
5
 10
6.4
 20
5.04
 11
6.4
 21
4.96
  0
LINE
  8
0
  6
SOLIDLINE
 62
5
 10
6.5
 20
5
 11
6.4
 21
5
  0
LINE
  8
0
  6
SOLIDLINE
 62
5
 10
6.1
 20
5
 11
6.2
 21
5
  0
TEXT
  8
0
 62
5
 10
6.14
 20
5.05824
 30
0.0
 40
0.0588
  1
R3
 50
0
 41
1.098
 72
0
 11
6.14
 21
5.05824
 31
0
 73
0
  0
TEXT
  8
0
 62
5
 10
6.29
 20
5.05824
 30
0.0
 40
0.0588
  1
620
 50
0
 41
1.098
 72
0
 11
6.29
 21
5.05824
 31
0
 73
0
  0
CIRCLE
  8
0
  6
SOLIDLINE
 62
5
 10
2.5
 20
4.1
 30
0.0
 40
0.1
  0
CIRCLE
  8
0
  6
SOLIDLINE
 62
5
 10
2.5
 20
4.1
 30
0.0
 40
0.1
  0
ARC
  8
0
  6
SOLIDLINE
 62
5
 10
2.53
 20
4.1
 40
0.03
 50
180
 51
2.92403e-010
  0
ARC
  8
0
  6
SOLIDLINE
 62
5
 10
2.47
 20
4.1
 40
0.03
 50
2.92403e-010
 51
180
  0
LINE
  8
0
  6
SOLIDLINE
 62
5
 10
2.5
 20
4.3
 11
2.5
 21
4.2
  0
TEXT
  8
0
 62
94
 10
2.51323
 20
4.15118
 30
0.0
 40
0.0441
  1
+
 50
0
 41
1.098
 72
1
 11
2.5
 21
4.15118
 31
0
 73
0
  0
LINE
  8
0
  6
SOLIDLINE
 62
5
 10
2.5
 20
3.9
 11
2.5
 21
4
  0
TEXT
  8
0
 62
94
 10
2.51323
 20
3.99118
 30
0.0
 40
0.0441
  1
-
 50
0
 41
1.098
 72
1
 11
2.5
 21
3.99118
 31
0
 73
0
  0
TEXT
  8
0
 62
5
 10
2.4
 20
3.78824
 30
0.0
 40
0.0588
  1
IAC
 50
0
 41
1.098
 72
0
 11
2.4
 21
3.78824
 31
0
 73
0
  0
TEXT
  8
0
 62
5
 10
2.63528
 20
4.18824
 30
0.0
 40
0.0588
  1
I1
 50
0
 41
1.098
 72
1
 11
2.6
 21
4.18824
 31
0
 73
0
  0
TEXT
  8
0
 62
5
 10
2.26584
 20
4.01824
 30
0.0
 40
0.0588
  1
2.48mA
 50
0
 41
1.098
 72
1
 11
2.16
 21
4.01824
 31
0
 73
0
  0
LINE
  8
0
  6
SOLIDLINE
 62
5
 10
3.35
 20
4
 11
3.45
 21
4
  0
LINE
  8
0
  6
SOLIDLINE
 62
5
 10
3.4
 20
4.1
 11
3.4
 21
4
  0
LINE
  8
0
  6
SOLIDLINE
 62
5
 10
5.15
 20
3.1
 11
5.25
 21
3.1
  0
LINE
  8
0
  6
SOLIDLINE
 62
5
 10
5.2
 20
3.2
 11
5.2
 21
3.1
  0
LINE
  8
0
  6
SOLIDLINE
 62
5
 10
5.85
 20
3.1
 11
5.95
 21
3.1
  0
LINE
  8
0
  6
SOLIDLINE
 62
5
 10
5.9
 20
3.2
 11
5.9
 21
3.1
  0
LINE
  8
0
  6
SOLIDLINE
 62
5
 10
4.66
 20
4.66
 11
4.77
 21
4.77
  0
CIRCLE
  8
0
  6
SOLIDLINE
 62
5
 10
4.8
 20
4.8
 30
0.0
 40
0.05
  0
LINE
  8
0
  6
SOLIDLINE
 62
5
 10
4.68
 20
4.64
 11
4.6
 21
4.6
  0
LINE
  8
0
  6
SOLIDLINE
 62
5
 10
4.6
 20
4.6
 11
4.64
 21
4.68
  0
LINE
  8
0
  6
SOLIDLINE
 62
5
 10
4.64
 20
4.68
 11
4.68
 21
4.64
  0
TEXT
  8
0
 62
5
 10
4.78
 20
4.77118
 30
0.0
 40
0.0441
  1
V
 50
0
 41
1.098
 72
0
 11
4.78
 21
4.77118
 31
0
 73
0
  0
LINE
  8
0
  6
SOLIDLINE
 62
5
 10
4.66
 20
3.66
 11
4.77
 21
3.77
  0
CIRCLE
  8
0
  6
SOLIDLINE
 62
5
 10
4.8
 20
3.8
 30
0.0
 40
0.05
  0
LINE
  8
0
  6
SOLIDLINE
 62
5
 10
4.68
 20
3.64
 11
4.6
 21
3.6
  0
LINE
  8
0
  6
SOLIDLINE
 62
5
 10
4.6
 20
3.6
 11
4.64
 21
3.68
  0
LINE
  8
0
  6
SOLIDLINE
 62
5
 10
4.64
 20
3.68
 11
4.68
 21
3.64
  0
TEXT
  8
0
 62
5
 10
4.78
 20
3.77118
 30
0.0
 40
0.0441
  1
V
 50
0
 41
1.098
 72
0
 11
4.78
 21
3.77118
 31
0
 73
0
  0
LINE
  8
0
  6
SOLIDLINE
 62
5
 10
6.76
 20
5.06
 11
6.87
 21
5.17
  0
CIRCLE
  8
0
  6
SOLIDLINE
 62
5
 10
6.9
 20
5.2
 30
0.0
 40
0.05
  0
LINE
  8
0
  6
SOLIDLINE
 62
5
 10
6.78
 20
5.04
 11
6.7
 21
5
  0
LINE
  8
0
  6
SOLIDLINE
 62
5
 10
6.7
 20
5
 11
6.74
 21
5.08
  0
LINE
  8
0
  6
SOLIDLINE
 62
5
 10
6.74
 20
5.08
 11
6.78
 21
5.04
  0
TEXT
  8
0
 62
5
 10
6.88
 20
5.17118
 30
0.0
 40
0.0441
  1
V
 50
0
 41
1.098
 72
0
 11
6.88
 21
5.17118
 31
0
 73
0
  0
LINE
  8
0
  6
SOLIDLINE
 62
5
 10
2.56
 20
4.36
 11
2.67
 21
4.47
  0
CIRCLE
  8
0
  6
SOLIDLINE
 62
5
 10
2.7
 20
4.5
 30
0.0
 40
0.05
  0
LINE
  8
0
  6
SOLIDLINE
 62
5
 10
2.5
 20
4.3
 11
2.54
 21
4.38
  0
LINE
  8
0
  6
SOLIDLINE
 62
5
 10
2.58
 20
4.34
 11
2.5
 21
4.3
  0
LINE
  8
0
  6
SOLIDLINE
 62
5
 10
2.54
 20
4.38
 11
2.58
 21
4.34
  0
LINE
  8
0
  6
SOLIDLINE
 62
5
 10
2.68
 20
4.48
 11
2.72
 21
4.48
  0
LINE
  8
0
  6
SOLIDLINE
 62
5
 10
2.68
 20
4.53
 11
2.72
 21
4.53
  0
LINE
  8
0
  6
SOLIDLINE
 62
5
 10
2.7
 20
4.53
 11
2.7
 21
4.48
  0
LINE
  8
0
  6
SOLIDLINE
 62
94
 10
3.6
 20
4.4
 11
3.6
 21
4.1
  0
LINE
  8
0
  6
SOLIDLINE
 62
94
 10
3.6
 20
4.1
 11
3.4
 21
4.1
  0
LINE
  8
0
  6
SOLIDLINE
 62
94
 10
3.6
 20
4.1
 11
3.6
 21
3.8
  0
LINE
  8
0
  6
SOLIDLINE
 62
94
 10
5
 20
4.3
 11
5.2
 21
4.3
  0
LINE
  8
0
  6
SOLIDLINE
 62
94
 10
5.2
 20
4.3
 11
5.4
 21
4.3
  0
LINE
  8
0
  6
SOLIDLINE
 62
94
 10
5.4
 20
3.9
 11
5.2
 21
3.9
  0
LINE
  8
0
  6
SOLIDLINE
 62
94
 10
5
 20
3.9
 11
5.2
 21
3.9
  0
LINE
  8
0
  6
SOLIDLINE
 62
94
 10
5.2
 20
3.9
 11
5.2
 21
3.7
  0
LINE
  8
0
  6
SOLIDLINE
 62
94
 10
5.9
 20
3.7
 11
5.9
 21
3.9
  0
LINE
  8
0
  6
SOLIDLINE
 62
94
 10
5.9
 20
3.9
 11
5.8
 21
3.9
  0
LINE
  8
0
  6
SOLIDLINE
 62
94
 10
5.9
 20
3.9
 11
6
 21
3.9
  0
LINE
  8
0
  6
SOLIDLINE
 62
94
 10
5.2
 20
3.3
 11
5.2
 21
3.2
  0
LINE
  8
0
  6
SOLIDLINE
 62
94
 10
5.9
 20
3.2
 11
5.9
 21
3.3
  0
LINE
  8
0
  6
SOLIDLINE
 62
94
 10
5.8
 20
4.3
 11
6
 21
4.3
  0
LINE
  8
0
  6
SOLIDLINE
 62
94
 10
6.1
 20
4.7
 11
6
 21
4.7
  0
LINE
  8
0
  6
SOLIDLINE
 62
94
 10
6
 20
4.7
 11
6
 21
4.3
  0
LINE
  8
0
  6
SOLIDLINE
 62
94
 10
6
 20
4.7
 11
6
 21
5
  0
LINE
  8
0
  6
SOLIDLINE
 62
94
 10
6
 20
5
 11
6.1
 21
5
  0
LINE
  8
0
  6
SOLIDLINE
 62
94
 10
2.5
 20
3.9
 11
2.5
 21
3.4
  0
LINE
  8
0
  6
SOLIDLINE
 62
94
 10
3.6
 20
3.4
 11
3.6
 21
3
  0
LINE
  8
0
  6
SOLIDLINE
 62
94
 10
3.6
 20
3
 11
3.8
 21
3
  0
LINE
  8
0
  6
SOLIDLINE
 62
94
 10
3.6
 20
3
 11
3.6
 21
2.7
  0
LINE
  8
0
  6
SOLIDLINE
 62
94
 10
3.6
 20
2.7
 11
3.8
 21
2.7
  0
LINE
  8
0
  6
SOLIDLINE
 62
94
 10
2.5
 20
3.4
 11
3.6
 21
3.4
  0
LINE
  8
0
  6
SOLIDLINE
 62
94
 10
4.6
 20
3.6
 11
4.6
 21
3.9
  0
TEXT
  8
0
 62
5
 10
4.52
 20
3.43824
 30
0.0
 40
0.0588
  1
U_neg
 50
0
 41
1.098
 72
0
 11
4.52
 21
3.43824
 31
0
 73
0
  0
LINE
  8
0
  6
SOLIDLINE
 62
94
 10
4.2
 20
2.7
 11
4.4
 21
2.7
  0
LINE
  8
0
  6
SOLIDLINE
 62
94
 10
4.2
 20
3
 11
4.4
 21
3
  0
LINE
  8
0
  6
SOLIDLINE
 62
94
 10
4.4
 20
3
 11
4.4
 21
3.6
  0
LINE
  8
0
  6
SOLIDLINE
 62
94
 10
4.4
 20
3.6
 11
4.3
 21
3.6
  0
LINE
  8
0
  6
SOLIDLINE
 62
94
 10
4.4
 20
2.7
 11
4.4
 21
3
  0
LINE
  8
0
  6
SOLIDLINE
 62
94
 10
4.4
 20
3.6
 11
4.6
 21
3.6
  0
LINE
  8
0
  6
SOLIDLINE
 62
94
 10
4.6
 20
4.6
 11
4.6
 21
4.3
  0
TEXT
  8
0
 62
5
 10
4.72
 20
4.53824
 30
0.0
 40
0.0588
  1
U_pos
 50
0
 41
1.098
 72
0
 11
4.72
 21
4.53824
 31
0
 73
0
  0
LINE
  8
0
  6
SOLIDLINE
 62
94
 10
4.3
 20
4.6
 11
4.6
 21
4.6
  0
LINE
  8
0
  6
SOLIDLINE
 62
94
 10
4.3
 20
4.6
 11
4.3
 21
5.1
  0
LINE
  8
0
  6
SOLIDLINE
 62
94
 10
4.3
 20
5.1
 11
4.2
 21
5.1
  0
LINE
  8
0
  6
SOLIDLINE
 62
94
 10
4.3
 20
5.1
 11
4.3
 21
5.4
  0
LINE
  8
0
  6
SOLIDLINE
 62
94
 10
4.3
 20
5.4
 11
4.2
 21
5.4
  0
LINE
  8
0
  6
SOLIDLINE
 62
94
 10
3.6
 20
4.8
 11
3.6
 21
5.1
  0
LINE
  8
0
  6
SOLIDLINE
 62
94
 10
3.6
 20
5.1
 11
3.8
 21
5.1
  0
LINE
  8
0
  6
SOLIDLINE
 62
94
 10
3.6
 20
5.1
 11
3.6
 21
5.4
  0
LINE
  8
0
  6
SOLIDLINE
 62
94
 10
3.6
 20
5.4
 11
3.8
 21
5.4
  0
LINE
  8
0
  6
SOLIDLINE
 62
94
 10
2.5
 20
4.3
 11
2.5
 21
4.8
  0
LINE
  8
0
  6
SOLIDLINE
 62
94
 10
2.5
 20
4.8
 11
3.6
 21
4.8
  0
LINE
  8
0
  6
SOLIDLINE
 62
94
 10
6.7
 20
4.7
 11
6.7
 21
4.1
  0
TEXT
  8
0
 62
5
 10
6.72
 20
4.38824
 30
0.0
 40
0.0588
  1
U_Out
 50
0
 41
1.098
 72
0
 11
6.72
 21
4.38824
 31
0
 73
0
  0
LINE
  8
0
  6
SOLIDLINE
 62
94
 10
6.5
 20
4.7
 11
6.7
 21
4.7
  0
LINE
  8
0
  6
SOLIDLINE
 62
94
 10
6.7
 20
4.7
 11
6.7
 21
5
  0
LINE
  8
0
  6
SOLIDLINE
 62
94
 10
6.7
 20
5
 11
6.5
 21
5
  0
POLYLINE
  8
0
  6
SOLIDLINE
 62
5
 66
  1
 10
0.0
 20
0.0
 30
0.0
 40
0.02
 41
0.02
 70
1
  0
VERTEX
  8
0
 10
3.59
 20
4.1
 30
0.0
 42
1
  0
VERTEX
  8
0
 10
3.61
 20
4.1
 30
0.0
 42
1
  0
SEQEND
  0
POLYLINE
  8
0
  6
SOLIDLINE
 62
5
 66
  1
 10
0.0
 20
0.0
 30
0.0
 40
0.02
 41
0.02
 70
1
  0
VERTEX
  8
0
 10
3.59
 20
3
 30
0.0
 42
1
  0
VERTEX
  8
0
 10
3.61
 20
3
 30
0.0
 42
1
  0
SEQEND
  0
POLYLINE
  8
0
  6
SOLIDLINE
 62
5
 66
  1
 10
0.0
 20
0.0
 30
0.0
 40
0.02
 41
0.02
 70
1
  0
VERTEX
  8
0
 10
4.29
 20
4.6
 30
0.0
 42
1
  0
VERTEX
  8
0
 10
4.31
 20
4.6
 30
0.0
 42
1
  0
SEQEND
  0
POLYLINE
  8
0
  6
SOLIDLINE
 62
5
 66
  1
 10
0.0
 20
0.0
 30
0.0
 40
0.02
 41
0.02
 70
1
  0
VERTEX
  8
0
 10
5.19
 20
4.3
 30
0.0
 42
1
  0
VERTEX
  8
0
 10
5.21
 20
4.3
 30
0.0
 42
1
  0
SEQEND
  0
POLYLINE
  8
0
  6
SOLIDLINE
 62
5
 66
  1
 10
0.0
 20
0.0
 30
0.0
 40
0.02
 41
0.02
 70
1
  0
VERTEX
  8
0
 10
5.19
 20
3.9
 30
0.0
 42
1
  0
VERTEX
  8
0
 10
5.21
 20
3.9
 30
0.0
 42
1
  0
SEQEND
  0
POLYLINE
  8
0
  6
SOLIDLINE
 62
5
 66
  1
 10
0.0
 20
0.0
 30
0.0
 40
0.02
 41
0.02
 70
1
  0
VERTEX
  8
0
 10
5.89
 20
3.9
 30
0.0
 42
1
  0
VERTEX
  8
0
 10
5.91
 20
3.9
 30
0.0
 42
1
  0
SEQEND
  0
POLYLINE
  8
0
  6
SOLIDLINE
 62
5
 66
  1
 10
0.0
 20
0.0
 30
0.0
 40
0.02
 41
0.02
 70
1
  0
VERTEX
  8
0
 10
5.99
 20
4.3
 30
0.0
 42
1
  0
VERTEX
  8
0
 10
6.01
 20
4.3
 30
0.0
 42
1
  0
SEQEND
  0
POLYLINE
  8
0
  6
SOLIDLINE
 62
5
 66
  1
 10
0.0
 20
0.0
 30
0.0
 40
0.02
 41
0.02
 70
1
  0
VERTEX
  8
0
 10
5.99
 20
4.7
 30
0.0
 42
1
  0
VERTEX
  8
0
 10
6.01
 20
4.7
 30
0.0
 42
1
  0
SEQEND
  0
POLYLINE
  8
0
  6
SOLIDLINE
 62
5
 66
  1
 10
0.0
 20
0.0
 30
0.0
 40
0.02
 41
0.02
 70
1
  0
VERTEX
  8
0
 10
6.69
 20
4.7
 30
0.0
 42
1
  0
VERTEX
  8
0
 10
6.71
 20
4.7
 30
0.0
 42
1
  0
SEQEND
  0
POLYLINE
  8
0
  6
SOLIDLINE
 62
5
 66
  1
 10
0.0
 20
0.0
 30
0.0
 40
0.02
 41
0.02
 70
1
  0
VERTEX
  8
0
 10
4.29
 20
5.1
 30
0.0
 42
1
  0
VERTEX
  8
0
 10
4.31
 20
5.1
 30
0.0
 42
1
  0
SEQEND
  0
POLYLINE
  8
0
  6
SOLIDLINE
 62
5
 66
  1
 10
0.0
 20
0.0
 30
0.0
 40
0.02
 41
0.02
 70
1
  0
VERTEX
  8
0
 10
3.59
 20
3.4
 30
0.0
 42
1
  0
VERTEX
  8
0
 10
3.61
 20
3.4
 30
0.0
 42
1
  0
SEQEND
  0
POLYLINE
  8
0
  6
SOLIDLINE
 62
5
 66
  1
 10
0.0
 20
0.0
 30
0.0
 40
0.02
 41
0.02
 70
1
  0
VERTEX
  8
0
 10
4.59
 20
4.6
 30
0.0
 42
1
  0
VERTEX
  8
0
 10
4.61
 20
4.6
 30
0.0
 42
1
  0
SEQEND
  0
POLYLINE
  8
0
  6
SOLIDLINE
 62
5
 66
  1
 10
0.0
 20
0.0
 30
0.0
 40
0.02
 41
0.02
 70
1
  0
VERTEX
  8
0
 10
6.69
 20
5
 30
0.0
 42
1
  0
VERTEX
  8
0
 10
6.71
 20
5
 30
0.0
 42
1
  0
SEQEND
  0
POLYLINE
  8
0
  6
SOLIDLINE
 62
5
 66
  1
 10
0.0
 20
0.0
 30
0.0
 40
0.02
 41
0.02
 70
1
  0
VERTEX
  8
0
 10
4.39
 20
3
 30
0.0
 42
1
  0
VERTEX
  8
0
 10
4.41
 20
3
 30
0.0
 42
1
  0
SEQEND
  0
POLYLINE
  8
0
  6
SOLIDLINE
 62
5
 66
  1
 10
0.0
 20
0.0
 30
0.0
 40
0.02
 41
0.02
 70
1
  0
VERTEX
  8
0
 10
4.39
 20
3.6
 30
0.0
 42
1
  0
VERTEX
  8
0
 10
4.41
 20
3.6
 30
0.0
 42
1
  0
SEQEND
  0
POLYLINE
  8
0
  6
SOLIDLINE
 62
5
 66
  1
 10
0.0
 20
0.0
 30
0.0
 40
0.02
 41
0.02
 70
1
  0
VERTEX
  8
0
 10
4.59
 20
3.6
 30
0.0
 42
1
  0
VERTEX
  8
0
 10
4.61
 20
3.6
 30
0.0
 42
1
  0
SEQEND
  0
POLYLINE
  8
0
  6
SOLIDLINE
 62
5
 66
  1
 10
0.0
 20
0.0
 30
0.0
 40
0.02
 41
0.02
 70
1
  0
VERTEX
  8
0
 10
3.59
 20
4.8
 30
0.0
 42
1
  0
VERTEX
  8
0
 10
3.61
 20
4.8
 30
0.0
 42
1
  0
SEQEND
  0
POLYLINE
  8
0
  6
SOLIDLINE
 62
5
 66
  1
 10
0.0
 20
0.0
 30
0.0
 40
0.02
 41
0.02
 70
1
  0
VERTEX
  8
0
 10
3.59
 20
5.1
 30
0.0
 42
1
  0
VERTEX
  8
0
 10
3.61
 20
5.1
 30
0.0
 42
1
  0
SEQEND
  0
POLYLINE
  8
0
  6
SOLIDLINE
 62
5
 66
  1
 10
0.0
 20
0.0
 30
0.0
 40
0.02
 41
0.02
 70
1
  0
VERTEX
  8
0
 10
2.49
 20
4.3
 30
0.0
 42
1
  0
VERTEX
  8
0
 10
2.51
 20
4.3
 30
0.0
 42
1
  0
SEQEND
  0
POLYLINE
  8
0
  6
SOLIDLINE
 62
5
 66
  1
 10
0.0
 20
0.0
 30
0.0
 40
0.02
 41
0.02
 70
1
  0
VERTEX
  8
0
 10
2.49
 20
4.3
 30
0.0
 42
1
  0
VERTEX
  8
0
 10
2.51
 20
4.3
 30
0.0
 42
1
  0
SEQEND
  0
POLYLINE
  8
0
  6
SOLIDLINE
 62
5
 66
  1
 10
0.0
 20
0.0
 30
0.0
 40
0.02
 41
0.02
 70
1
  0
VERTEX
  8
0
 10
2.49
 20
4.3
 30
0.0
 42
1
  0
VERTEX
  8
0
 10
2.51
 20
4.3
 30
0.0
 42
1
  0
SEQEND
  0
ENDSEC
  0
EOF
